<svg xmlns="http://www.w3.org/2000/svg" width="19.137" height="45.212" viewBox="0 0 19.137 45.212">
  <g id="Group_5" data-name="Group 5" transform="translate(-59.166 -203.775)">
    <g id="Group_2" data-name="Group 2" transform="translate(59.166 203.775)" opacity="0.5">
      <path id="Path_1891" data-name="Path 1891" d="M16.987,4.719V1.887A1.893,1.893,0,0,0,15.1,0H3.775A1.893,1.893,0,0,0,1.887,1.887V4.719A1.893,1.893,0,0,0,0,6.606v4.719H1.255l.632,1.887h.944l.632-1.887H15.421l.623,1.887h.944l.632-1.887h1.255V6.606A1.893,1.893,0,0,0,16.987,4.719Zm-8.494,0H3.775V1.887H8.494Zm6.606,0H10.381V1.887H15.1Z"/>
    </g>
    <g id="Group_4" data-name="Group 4" transform="translate(59.428 235.775)">
      <path id="Path_1891-2" data-name="Path 1891" d="M16.987,4.719V1.887A1.893,1.893,0,0,0,15.1,0H3.775A1.893,1.893,0,0,0,1.887,1.887V4.719A1.893,1.893,0,0,0,0,6.606v4.719H1.255l.632,1.887h.944l.632-1.887H15.421l.623,1.887h.944l.632-1.887h1.255V6.606A1.893,1.893,0,0,0,16.987,4.719Zm-8.494,0H3.775V1.887H8.494Zm6.606,0H10.381V1.887H15.1Z" fill="#0060ad"/>
    </g>
  </g>
</svg>
