<svg xmlns="http://www.w3.org/2000/svg" width="18.249" height="47.987" viewBox="0 0 18.249 47.987">
  <g id="Group_6" data-name="Group 6" transform="translate(-105.539 -199.887)">
    <g id="Group_1" data-name="Group 1" transform="translate(105.539 199.887)" opacity="0.5">
      <path id="Path_1889" data-name="Path 1889" d="M106.4,67.1a1.7,1.7,0,1,0-1.7-1.7A1.7,1.7,0,0,0,106.4,67.1Z" transform="translate(-102.152 -61.152)"/>
      <path id="Path_1890" data-name="Path 1890" d="M117.288,70.343V63.4a2.4,2.4,0,0,0-4.1-1.7l-1.062,1.062a1.445,1.445,0,0,0-.433-.068,1.687,1.687,0,0,0-.917.272l2.344,2.344a1.687,1.687,0,0,0,.272-.917,1.837,1.837,0,0,0-.059-.433l1.062-1.062a.7.7,0,0,1,1.2.5v6.939h-5.818a4.329,4.329,0,0,1-.7-.612l-1.189-1.316a1.822,1.822,0,0,0-.586-.425,1.946,1.946,0,0,0-.849-.2,1.912,1.912,0,0,0-1.9,1.911v.637H102v5.1a1.7,1.7,0,0,0,1.7,1.7.852.852,0,0,0,.849.849h11.891a.852.852,0,0,0,.849-.849,1.7,1.7,0,0,0,1.7-1.7v-5.1Z" transform="translate(-102 -61)"/>
    </g>
    <g id="Group_3" data-name="Group 3" transform="translate(106.801 230.887)">
      <path id="Path_1889-2" data-name="Path 1889" d="M106.4,67.1a1.7,1.7,0,1,0-1.7-1.7A1.7,1.7,0,0,0,106.4,67.1Z" transform="translate(-102.152 -61.152)" fill="#0060ad"/>
      <path id="Path_1890-2" data-name="Path 1890" d="M117.288,70.343V63.4a2.4,2.4,0,0,0-4.1-1.7l-1.062,1.062a1.445,1.445,0,0,0-.433-.068,1.687,1.687,0,0,0-.917.272l2.344,2.344a1.687,1.687,0,0,0,.272-.917,1.837,1.837,0,0,0-.059-.433l1.062-1.062a.7.7,0,0,1,1.2.5v6.939h-5.818a4.329,4.329,0,0,1-.7-.612l-1.189-1.316a1.822,1.822,0,0,0-.586-.425,1.946,1.946,0,0,0-.849-.2,1.912,1.912,0,0,0-1.9,1.911v.637H102v5.1a1.7,1.7,0,0,0,1.7,1.7.852.852,0,0,0,.849.849h11.891a.852.852,0,0,0,.849-.849,1.7,1.7,0,0,0,1.7-1.7v-5.1Z" transform="translate(-102 -61)" fill="#0060ad"/>
    </g>
  </g>
</svg>
