<?xml version="1.0" encoding="UTF-8"?>
<!DOCTYPE svg PUBLIC "-//W3C//DTD SVG 1.1//EN" "http://www.w3.org/Graphics/SVG/1.1/DTD/svg11.dtd">
<!-- Creator: CorelDRAW -->
<svg xmlns="http://www.w3.org/2000/svg" xml:space="preserve" width="41.734mm" height="41.7342mm" version="1.1" style="shape-rendering:geometricPrecision; text-rendering:geometricPrecision; image-rendering:optimizeQuality; fill-rule:evenodd; clip-rule:evenodd"
viewBox="0 0 1186.6 1186.61"
 xmlns:xlink="http://www.w3.org/1999/xlink"
 xmlns:xodm="http://www.corel.com/coreldraw/odm/2003">
 <defs>
  <style type="text/css">
   <![CDATA[
    .fil0 {fill:black}
    .fil1 {fill:#014A7D}
    .fil2 {fill:#169BFA}
   ]]>
  </style>
 </defs>
 <g id="Layer_x0020_1">
  <metadata id="CorelCorpID_0Corel-Layer"/>
  <polygon class="fil0" points="392.32,593.31 593.3,392.33 794.28,593.31 593.3,794.29 "/>
  <path class="fil1" d="M333.48 1067.33l-214.38 -212.58 0 212.58 214.38 0zm-214.38 -730.51l214.73 -212.92 -214.73 0 0 212.92zm732.1 -212.92l215.75 213.94 0 -213.94 -215.75 0zm215.75 729.84l-215.4 213.59 215.4 0 0 -213.59z"/>
  <polygon class="fil1" points="593.3,392.32 392.32,593.31 593.3,794.29 794.28,593.31 "/>
  <polygon class="fil2" points="1055.78,462.48 924.95,593.31 839.15,679.11 593.3,924.96 261.65,593.31 353.78,501.17 593.3,261.65 861.18,529.54 992.01,398.71 717.21,123.9 593.3,0 469.4,123.9 119.1,474.2 -0,593.31 119.1,712.41 130.83,724.13 474.02,1067.33 593.3,1186.61 712.58,1067.33 1066.95,712.96 1186.6,593.31 1066.95,473.65 "/>
 </g>
</svg>
