<?xml version="1.0" encoding="UTF-8"?>
<!DOCTYPE svg PUBLIC "-//W3C//DTD SVG 1.1//EN" "http://www.w3.org/Graphics/SVG/1.1/DTD/svg11.dtd">
<!-- Creator: CorelDRAW -->
<svg xmlns="http://www.w3.org/2000/svg" xml:space="preserve" width="118.515mm" height="33.6275mm" version="1.1" style="shape-rendering:geometricPrecision; text-rendering:geometricPrecision; image-rendering:optimizeQuality; fill-rule:evenodd; clip-rule:evenodd"
viewBox="0 0 11881.92 3371.38"
 xmlns:xlink="http://www.w3.org/1999/xlink"
 xmlns:xodm="http://www.corel.com/coreldraw/odm/2003">
 <defs>
  <style type="text/css">
   <![CDATA[
    .fil1 {fill:#169BFA}
    .fil0 {fill:white}
    .fil2 {fill:white;fill-rule:nonzero}
   ]]>
  </style>
 </defs>
 <g id="Layer_x0020_1">
  <metadata id="CorelCorpID_0Corel-Layer"/>
  <path class="fil0" d="M947.47 3032.49l-609.08 -603.98 0 603.98 609.08 0zm-609.08 -2075.52l610.07 -604.95 -610.07 0 0 604.95zm2080.02 -604.95l612.98 607.83 0 -607.83 -612.98 0zm612.98 2073.61l-611.98 606.85 611.98 0 0 -606.85z"/>
  <polygon class="fil1" points="2999.67,1313.98 2627.95,1685.68 2384.16,1929.47 1685.67,2627.96 743.4,1685.68 1005.15,1423.91 1685.67,743.4 2446.77,1504.5 2818.48,1132.8 2037.7,352.02 1685.68,0 1333.65,352.02 338.4,1347.29 -0,1685.68 338.4,2024.09 371.69,2057.38 1346.8,3032.49 1685.68,3371.38 2024.57,3032.49 3031.4,2025.64 3371.36,1685.68 3031.4,1345.72 "/>
  <path class="fil2" d="M4127.99 351.51l-386.54 0.75 0 1184.97 386.54 0c402.61,0 649.09,-223.64 649.09,-591.1 0,-370.98 -246.48,-596.13 -649.09,-594.62zm-5.01 889.04l-75.05 0 0 -594.87 72.04 0c212.33,0.5 341.6,113.7 341.6,299.7 0,183.73 -128.51,295.68 -338.6,295.68l0 -0.5zm808.48 296.68l314.75 0 0 -1185.22 -314.75 0 0 1185.22zm1339.83 0l344.88 0 -551.45 -1200.52 -149.33 0 -550.71 1200.52 344.13 0 60.23 -138.8 442.77 0 59.47 138.8zm-402.84 -368.71l121.99 -281.12 121.21 281.12 -243.2 0zm2010.49 -827.04l-509.01 696.77 -509.02 -696.77 -126.51 0 0 1195.75 314.76 0 0 -469.61 320.02 449.79 2.27 0 319.26 -449.79 0 469.61 314.78 0 0 -1195.75 -126.52 0zm930.73 1225.88c369.73,0 651.33,-267.32 651.33,-620.48 0,-356.41 -281.6,-626.24 -650.58,-626.24 -368.96,0 -650.58,269.83 -650.58,626.24 0,353.15 281.11,620.48 649.84,620.48zm0.74 -299.7c-188.5,0 -332.82,-140.56 -332.82,-323.04 0,-183.48 144.32,-324.79 332.82,-324.79 188.5,0 332.82,141.31 332.82,324.79 0,182.48 -144.32,323.04 -332.82,323.04zm1514.54 -917.16l0 577.56 -607.93 -587.84 -101.4 0 0 1197.01 314.76 0 0 -579.05 609.42 591.11 99.91 0 0 -1198.79 -314.76 0zm907.87 1l-386.54 0.75 0 1184.97 386.54 0c402.61,0 649.09,-223.64 649.09,-591.1 0,-370.98 -246.48,-596.13 -649.09,-594.62zm-5.01 889.04l-75.05 0 0 -594.87 72.03 0c212.34,0.5 341.61,113.7 341.61,299.7 0,183.73 -128.51,295.68 -338.6,295.68l0 -0.5z"/>
  <path class="fil2" d="M4736.17 3032.46l-408.12 -607.41 363.44 -577.82 -361.94 0 -274.83 442.01 0 -442.01 -313.26 0 0 1185.23 313.26 0 0 -450.8 299.94 450.8 381.52 0zm881.52 -893.06l0 -292.17 -768.57 0 0 1185.23 768.57 0 0 -293.67 -457.32 0 0 -171.68 376.49 0 0 -262.05 -376.49 0 0 -165.66 457.32 0zm453.57 893.06l312.73 0 0 -511.79 366.22 -673.44 -357.42 0 -164.91 343.38 -165.4 -343.38 -356.68 0 365.48 673.44 0 511.79z"/>
  <polygon class="fil2" points="7227.24,2367.42 7263.09,2367.42 7263.09,2139.24 7227.24,2139.24 "/>
  <polygon class="fil2" points="7512.01,2138.66 7512.01,2287.44 7366.47,2135.28 7364.48,2135.28 7364.48,2367.71 7400.34,2367.71 7400.34,2218.93 7546.51,2371.19 7547.96,2371.19 7547.96,2138.66 "/>
  <polygon class="fil2" points="7785.33,2174.32 7785.33,2138.66 7649.4,2138.66 7649.4,2367.71 7685.26,2367.71 7685.26,2270.87 7771.61,2270.87 7771.61,2235.21 7685.26,2235.21 7685.26,2174.32 "/>
  <polygon class="fil2" points="7871.31,2367.42 7907.17,2367.42 7907.17,2139.24 7871.31,2139.24 "/>
  <polygon class="fil2" points="8156.09,2138.66 8156.09,2287.44 8010.54,2135.28 8008.56,2135.28 8008.56,2367.71 8044.41,2367.71 8044.41,2218.93 8190.58,2371.19 8192.04,2371.19 8192.04,2138.66 "/>
  <polygon class="fil2" points="8293.48,2367.42 8329.34,2367.42 8329.34,2139.24 8293.48,2139.24 "/>
  <polygon class="fil2" points="8573.86,2139.29 8415.65,2139.29 8415.65,2174.85 8476.78,2174.85 8476.78,2367.42 8512.73,2367.42 8512.73,2174.85 8573.86,2174.85 "/>
  <polygon class="fil2" points="8795.67,2174.56 8795.67,2139.29 8659.74,2139.29 8659.74,2367.42 8795.67,2367.42 8795.67,2331.76 8695.61,2331.76 8695.61,2268.55 8781.96,2268.55 8781.96,2232.89 8695.61,2232.89 8695.61,2174.56 "/>
  <path class="fil2" d="M7227.24 2740.63l35.85 0 0 -79.15 40.54 0c44.21,0 80.36,-33 80.36,-73.64 0,-41.47 -36.14,-75.33 -80.36,-75.33l-76.4 0 0 228.12zm76.4 -114.42l-40.54 -0.15 0 -77.99 40.54 0c24.5,0 44.5,17.69 44.5,39.48 0,21.4 -20,38.8 -44.5,38.66z"/>
  <path class="fil2" d="M7576.9 2744.35c64.95,0 118.09,-52.87 118.09,-117.47 0,-65.14 -53.15,-118.43 -117.95,-118.43 -64.94,0 -117.94,53.3 -117.94,118.43 0,64.61 53.01,117.47 117.8,117.47zm0 -36.14c-44.99,0 -81.66,-36.67 -81.66,-81.62 0,-45.18 36.67,-82 81.66,-82 45,0 81.95,36.82 81.95,82 0,44.94 -36.95,81.62 -81.95,81.62z"/>
  <path class="fil2" d="M7851.24 2744.35c46.25,0 81.34,-26.1 81.34,-66.54 0,-35.95 -28.04,-53.35 -64.07,-69.15 -27.7,-11.89 -48.76,-18.27 -48.76,-36.09 0,-16.09 16.67,-29.09 37.6,-29.09 16.52,0 32.22,8.6 39.29,24.02l26.63 -18.37c-9.38,-25.03 -33.7,-40.73 -66.21,-40.73 -40.98,0 -73.45,26 -73.45,63.35 0,35.75 29.76,49.63 56.48,61.51 26.59,11.46 56.54,24.16 56.54,45.24 0,17.39 -19.33,29.72 -44.96,29.72 -21.88,0 -40.87,-10.2 -51.07,-28.03l-28.32 20.25c13.01,26.34 41.53,43.92 78.96,43.92z"/>
  <path class="fil2" d="M8086.77 2744.35c46.26,0 81.33,-26.1 81.33,-66.54 0,-35.95 -28.03,-53.35 -64.06,-69.15 -27.69,-11.89 -48.77,-18.27 -48.77,-36.09 0,-16.09 16.67,-29.09 37.6,-29.09 16.53,0 32.23,8.6 39.29,24.02l26.64 -18.37c-9.38,-25.03 -33.7,-40.73 -66.21,-40.73 -40.97,0 -73.46,26 -73.46,63.35 0,35.75 29.77,49.63 56.5,61.51 26.57,11.46 56.52,24.16 56.52,45.24 0,17.39 -19.32,29.72 -44.94,29.72 -21.89,0 -40.86,-10.2 -51.06,-28.03l-28.32 20.25c12.99,26.34 41.51,43.92 78.95,43.92z"/>
  <polygon class="fil2" points="8256.4,2740.63 8292.25,2740.63 8292.25,2512.46 8256.4,2512.46 "/>
  <path class="fil2" d="M8496.47 2612.19c8.42,0 25.52,-16.43 25.52,-41.13 0,-30.35 -26.62,-58.61 -65.91,-58.61l-62.19 0 0 228.12 85.24 0c45.39,0 71.85,-34.55 71.85,-69.49 0,-35.42 -28.88,-58.9 -54.51,-58.9zm-38.27 -64.95c16.09,0 30.26,12.18 30.26,28.46 0,16.28 -12.99,28.46 -30.68,28.31l-28.22 0.15 0 -56.93 28.64 0zm17.75 158.36l-46.39 0 0 -69.83 45.8 -0.14c25.91,0 40.64,15.84 40.64,33.09 0,22.04 -19.53,36.87 -40.05,36.87z"/>
  <polygon class="fil2" points="8636.82,2740.63 8672.67,2740.63 8672.67,2512.46 8636.82,2512.46 "/>
  <polygon class="fil2" points="8809.92,2704.97 8809.92,2512.46 8774.08,2512.46 8774.08,2740.63 8911.73,2740.63 8911.73,2704.97 "/>
  <polygon class="fil2" points="8997.82,2740.63 9033.66,2740.63 9033.66,2512.46 8997.82,2512.46 "/>
  <polygon class="fil2" points="9278.19,2512.51 9119.99,2512.51 9119.99,2548.07 9181.11,2548.07 9181.11,2740.63 9217.06,2740.63 9217.06,2548.07 9278.19,2548.07 "/>
  <polygon class="fil2" points="9364.09,2740.63 9399.93,2740.63 9399.93,2512.46 9364.09,2512.46 "/>
  <polygon class="fil2" points="9637.26,2547.78 9637.26,2512.51 9501.34,2512.51 9501.34,2740.63 9637.26,2740.63 9637.26,2704.97 9537.19,2704.97 9537.19,2641.77 9623.53,2641.77 9623.53,2606.11 9537.19,2606.11 9537.19,2547.78 "/>
  <path class="fil2" d="M9797.95 2744.35c46.24,0 81.33,-26.1 81.33,-66.54 0,-35.95 -28.03,-53.35 -64.08,-69.15 -27.69,-11.89 -48.75,-18.27 -48.75,-36.09 0,-16.09 16.67,-29.09 37.6,-29.09 16.53,0 32.23,8.6 39.29,24.02l26.62 -18.37c-9.36,-25.03 -33.68,-40.73 -66.21,-40.73 -40.97,0 -73.44,26 -73.44,63.35 0,35.75 29.77,49.63 56.49,61.51 26.58,11.46 56.53,24.16 56.53,45.24 0,17.39 -19.34,29.72 -44.94,29.72 -21.89,0 -40.87,-10.2 -51.08,-28.03l-28.32 20.25c13.01,26.34 41.53,43.92 78.97,43.92z"/>
  <polygon class="fil0" points="1685.67,1114.66 1114.65,1685.68 1685.67,2256.71 2256.69,1685.68 "/>
 </g>
</svg>
