<?xml version="1.0" encoding="UTF-8"?>
<!DOCTYPE svg PUBLIC "-//W3C//DTD SVG 1.1//EN" "http://www.w3.org/Graphics/SVG/1.1/DTD/svg11.dtd">
<!-- Creator: CorelDRAW -->
<svg xmlns="http://www.w3.org/2000/svg" xml:space="preserve" width="147.086mm" height="41.7342mm" version="1.1" style="shape-rendering:geometricPrecision; text-rendering:geometricPrecision; image-rendering:optimizeQuality; fill-rule:evenodd; clip-rule:evenodd"
viewBox="0 0 14739.02 4182.05"
 xmlns:xlink="http://www.w3.org/1999/xlink"
 xmlns:xodm="http://www.corel.com/coreldraw/odm/2003">
 <defs>
  <style type="text/css">
   <![CDATA[
    .fil0 {fill:black}
    .fil1 {fill:#014A7D}
    .fil2 {fill:#169BFA}
    .fil3 {fill:#014A7D;fill-rule:nonzero}
   ]]>
  </style>
 </defs>
 <g id="Layer_x0020_1">
  <metadata id="CorelCorpID_0Corel-Layer"/>
  <polygon class="fil0" points="1382.68,2091.03 2091.01,1382.7 2799.33,2091.03 2091.01,2799.36 "/>
  <path class="fil1" d="M1175.31 3761.67l-755.55 -749.2 0 749.2 755.55 0zm-755.55 -2574.58l756.78 -750.42 -756.78 0 0 750.42zm2580.2 -750.42l760.38 753.99 0 -753.99 -760.38 0zm760.38 2572.23l-759.16 752.77 759.16 0 0 -752.77z"/>
  <polygon class="fil1" points="2091.01,1382.69 1382.66,2091.03 2091.01,2799.36 2799.33,2091.03 "/>
  <polygon class="fil2" points="3720.96,1629.94 3259.87,2091.03 2957.46,2393.43 2091.01,3259.89 922.15,2091.03 1246.85,1766.31 2091.01,922.16 3035.11,1866.28 3496.22,1405.19 2527.7,436.67 2091.02,0 1654.35,436.67 419.76,1671.26 -0,2091.03 419.76,2510.8 461.08,2552.11 1670.64,3761.67 2091.02,4182.05 2511.4,3761.67 3760.33,2512.74 4182.03,2091.03 3760.33,1669.33 "/>
  <path class="fil3" d="M5120.6 436.04l-479.49 0.93 0 1469.91 479.49 0c499.42,0 805.16,-277.42 805.16,-733.24 0,-460.19 -305.74,-739.48 -805.16,-737.6zm-6.21 1102.83l-93.11 0 0 -737.92 89.37 0c263.39,0.63 423.74,141.05 423.74,371.77 0,227.91 -159.41,366.78 -420.01,366.78l0 -0.62zm1002.86 368.02l390.46 0 0 -1470.22 -390.46 0 0 1470.22zm1662.04 0l427.79 0 -684.03 -1489.2 -185.26 0 -683.12 1489.2 426.86 0 74.73 -172.18 549.22 0 73.8 172.18zm-499.73 -457.38l151.32 -348.71 150.37 348.71 -301.69 0zm2493.95 -1025.91l-631.42 864.32 -631.43 -864.32 -156.92 0 0 1483.29 390.46 0 0 -582.54 396.96 557.95 2.82 0 396.04 -557.95 0 582.54 390.45 0 0 -1483.29 -156.93 0zm1154.51 1520.65c458.63,0 807.97,-331.59 807.97,-769.67 0,-442.11 -349.34,-776.83 -807.03,-776.83 -457.7,0 -807.03,334.72 -807.03,776.83 0,438.07 348.71,769.67 806.08,769.67zm0.94 -371.76c-233.84,0 -412.86,-174.36 -412.86,-400.71 0,-227.61 179.02,-402.89 412.86,-402.89 233.82,0 412.84,175.28 412.84,402.89 0,226.35 -179.02,400.71 -412.84,400.71zm1878.72 -1137.7l0 716.45 -754.12 -729.2 -125.79 0 0 1484.84 390.46 0 0 -718.29 755.97 733.24 123.92 0 0 -1487.05 -390.44 0zm1126.17 1.25l-479.49 0.93 0 1469.91 479.49 0c499.42,0 805.17,-277.42 805.17,-733.24 0,-460.19 -305.75,-739.48 -805.17,-737.6zm-6.21 1102.83l-93.11 0 0 -737.92 89.36 0c263.41,0.63 423.76,141.05 423.76,371.77 0,227.91 -159.42,366.78 -420.02,366.78l0 -0.62z"/>
  <path class="fil3" d="M5875.02 3761.64l-506.26 -753.48 450.85 -716.75 -448.98 0 -340.93 548.29 0 -548.29 -388.58 0 0 1470.22 388.58 0 0 -559.2 372.07 559.2 473.26 0zm1093.49 -1107.81l0 -362.42 -953.38 0 0 1470.22 953.38 0 0 -364.28 -567.29 0 0 -212.97 467.03 0 0 -325.05 -467.03 0 0 -205.5 567.29 0zm562.62 1107.81l387.93 0 0 -634.85 454.27 -835.37 -443.37 0 -204.55 425.94 -205.19 -425.94 -442.42 0 453.34 835.37 0 634.85z"/>
  <polygon class="fil3" points="8965.08,2936.68 9009.56,2936.68 9009.56,2653.64 8965.08,2653.64 "/>
  <polygon class="fil3" points="9318.33,2652.92 9318.33,2837.48 9137.79,2648.72 9135.35,2648.72 9135.35,2937.04 9179.82,2937.04 9179.82,2752.48 9361.14,2941.36 9362.94,2941.36 9362.94,2652.92 "/>
  <polygon class="fil3" points="9657.39,2697.16 9657.39,2652.92 9488.79,2652.92 9488.79,2937.04 9533.26,2937.04 9533.26,2816.91 9640.37,2816.91 9640.37,2772.68 9533.26,2772.68 9533.26,2697.16 "/>
  <polygon class="fil3" points="9764.04,2936.68 9808.53,2936.68 9808.53,2653.64 9764.04,2653.64 "/>
  <polygon class="fil3" points="10117.29,2652.92 10117.29,2837.48 9936.75,2648.72 9934.31,2648.72 9934.31,2937.04 9978.77,2937.04 9978.77,2752.48 10160.09,2941.36 10161.9,2941.36 10161.9,2652.92 "/>
  <polygon class="fil3" points="10287.74,2936.68 10332.22,2936.68 10332.22,2653.64 10287.74,2653.64 "/>
  <polygon class="fil3" points="10635.54,2653.7 10439.28,2653.7 10439.28,2697.81 10515.11,2697.81 10515.11,2936.68 10559.72,2936.68 10559.72,2697.81 10635.54,2697.81 "/>
  <polygon class="fil3" points="10910.69,2697.46 10910.69,2653.7 10742.08,2653.7 10742.08,2936.68 10910.69,2936.68 10910.69,2892.44 10786.55,2892.44 10786.55,2814.04 10893.67,2814.04 10893.67,2769.81 10786.55,2769.81 10786.55,2697.46 "/>
  <path class="fil3" d="M8965.08 3399.66l44.47 0 0 -98.18 50.29 0c54.84,0 99.7,-40.94 99.7,-91.36 0,-51.43 -44.85,-93.44 -99.7,-93.44l-94.77 0 0 282.98zm94.77 -141.94l-50.29 -0.18 0 -96.75 50.29 0c30.4,0 55.21,21.95 55.21,48.98 0,26.55 -24.81,48.13 -55.21,47.95z"/>
  <path class="fil3" d="M9398.85 3404.28c80.55,0 146.48,-65.59 146.48,-145.72 0,-80.81 -65.94,-146.92 -146.31,-146.92 -80.57,0 -146.32,66.12 -146.32,146.92 0,80.14 65.76,145.72 146.15,145.72zm0 -44.84c-55.82,0 -101.32,-45.49 -101.32,-101.24 0,-56.05 45.5,-101.72 101.32,-101.72 55.81,0 101.65,45.67 101.65,101.72 0,55.75 -45.84,101.24 -101.65,101.24z"/>
  <path class="fil3" d="M9739.14 3404.28c57.38,0 100.89,-32.38 100.89,-82.54 0,-44.6 -34.77,-66.18 -79.48,-85.78 -34.34,-14.75 -60.48,-22.67 -60.48,-44.78 0,-19.96 20.69,-36.08 46.65,-36.08 20.49,0 39.98,10.67 48.72,29.79l33.03 -22.78c-11.63,-31.05 -41.77,-50.53 -82.11,-50.53 -50.84,0 -91.13,32.26 -91.13,78.58 0,44.36 36.94,61.57 70.08,76.31 32.97,14.21 70.12,29.97 70.12,56.11 0,21.58 -23.98,36.87 -55.75,36.87 -27.16,0 -50.71,-12.65 -63.35,-34.76l-35.13 25.11c16.12,32.67 51.5,54.49 97.94,54.49z"/>
  <path class="fil3" d="M10031.32 3404.28c57.37,0 100.88,-32.38 100.88,-82.54 0,-44.6 -34.76,-66.18 -79.46,-85.78 -34.35,-14.75 -60.48,-22.67 -60.48,-44.78 0,-19.96 20.68,-36.08 46.63,-36.08 20.5,0 39.99,10.67 48.73,29.79l33.03 -22.78c-11.63,-31.05 -41.77,-50.53 -82.12,-50.53 -50.83,0 -91.11,32.26 -91.11,78.58 0,44.36 36.93,61.57 70.07,76.31 32.97,14.21 70.12,29.97 70.12,56.11 0,21.58 -23.97,36.87 -55.75,36.87 -27.16,0 -50.7,-12.65 -63.35,-34.76l-35.13 25.11c16.12,32.67 51.5,54.49 97.94,54.49z"/>
  <polygon class="fil3" points="10241.74,3399.66 10286.2,3399.66 10286.2,3116.61 10241.74,3116.61 "/>
  <path class="fil3" d="M10539.54 3240.33c10.43,0 31.65,-20.38 31.65,-51.01 0,-37.65 -33.03,-72.71 -81.76,-72.71l-77.14 0 0 282.98 105.74 0c56.29,0 89.13,-42.86 89.13,-86.2 0,-43.94 -35.85,-73.07 -67.62,-73.07zm-47.48 -80.56c19.96,0 37.53,15.1 37.53,35.3 0,20.2 -16.12,35.3 -38.06,35.12l-35.01 0.18 0 -70.61 35.54 0zm22 196.43l-57.54 0 0 -86.62 56.83 -0.18c32.13,0 50.4,19.67 50.4,41.06 0,27.34 -24.21,45.73 -49.69,45.73z"/>
  <polygon class="fil3" points="10713.62,3399.66 10758.1,3399.66 10758.1,3116.61 10713.62,3116.61 "/>
  <polygon class="fil3" points="10928.36,3355.42 10928.36,3116.61 10883.89,3116.61 10883.89,3399.66 11054.66,3399.66 11054.66,3355.42 "/>
  <polygon class="fil3" points="11161.44,3399.66 11205.91,3399.66 11205.91,3116.61 11161.44,3116.61 "/>
  <polygon class="fil3" points="11509.24,3116.67 11312.97,3116.67 11312.97,3160.78 11388.81,3160.78 11388.81,3399.66 11433.41,3399.66 11433.41,3160.78 11509.24,3160.78 "/>
  <polygon class="fil3" points="11615.78,3399.66 11660.25,3399.66 11660.25,3116.61 11615.78,3116.61 "/>
  <polygon class="fil3" points="11954.65,3160.43 11954.65,3116.67 11786.02,3116.67 11786.02,3399.66 11954.65,3399.66 11954.65,3355.42 11830.49,3355.42 11830.49,3277.01 11937.62,3277.01 11937.62,3232.78 11830.49,3232.78 11830.49,3160.43 "/>
  <path class="fil3" d="M12153.97 3404.28c57.36,0 100.87,-32.38 100.87,-82.54 0,-44.6 -34.75,-66.18 -79.47,-85.78 -34.35,-14.75 -60.47,-22.67 -60.47,-44.78 0,-19.96 20.67,-36.08 46.64,-36.08 20.5,0 39.97,10.67 48.73,29.79l33.03 -22.78c-11.63,-31.05 -41.79,-50.53 -82.12,-50.53 -50.83,0 -91.12,32.26 -91.12,78.58 0,44.36 36.92,61.57 70.06,76.31 32.97,14.21 70.14,29.97 70.14,56.11 0,21.58 -23.98,36.87 -55.75,36.87 -27.16,0 -50.71,-12.65 -63.37,-34.76l-35.11 25.11c16.12,32.67 51.48,54.49 97.94,54.49z"/>
 </g>
</svg>
